<svg xmlns="http://www.w3.org/2000/svg" xmlns:xlink="http://www.w3.org/1999/xlink" width="500" zoomAndPan="magnify" viewBox="0 0 375 374.999991" height="500" preserveAspectRatio="xMidYMid meet" version="1.0"><defs><g/><clipPath id="4b82154a15"><path d="M 41 189 L 130.09375 189 L 130.09375 204 L 41 204 Z M 41 189 " clip-rule="nonzero"/></clipPath><clipPath id="f9f32fc0bf"><path d="M 58 156 L 130.09375 156 L 130.09375 170 L 58 170 Z M 58 156 " clip-rule="nonzero"/></clipPath><clipPath id="1bed0db2fd"><path d="M 95 173 L 130.09375 173 L 130.09375 187 L 95 187 Z M 95 173 " clip-rule="nonzero"/></clipPath><clipPath id="d5a359f891"><path d="M 19.09375 189 L 35 189 L 35 204 L 19.09375 204 Z M 19.09375 189 " clip-rule="nonzero"/></clipPath><clipPath id="5ec9404c2b"><path d="M 61 206 L 130.09375 206 L 130.09375 221 L 61 221 Z M 61 206 " clip-rule="nonzero"/></clipPath><clipPath id="355c58ff6b"><path d="M 68 223 L 130.09375 223 L 130.09375 238 L 68 238 Z M 68 223 " clip-rule="nonzero"/></clipPath><clipPath id="2d4ae2cd79"><path d="M 308 152 L 340 152 L 340 239.363281 L 308 239.363281 Z M 308 152 " clip-rule="nonzero"/></clipPath><clipPath id="b3beff8487"><path d="M 350 138 L 355.726562 138 L 355.726562 144 L 350 144 Z M 350 138 " clip-rule="nonzero"/></clipPath></defs><g clip-path="url(#4b82154a15)"><path fill="#0091ff" d="M 168.542969 189.855469 L 97.039062 189.855469 L 93.984375 195.136719 L 86.914062 195.136719 L 83.859375 189.855469 C 81.226562 189.855469 48.238281 189.855469 45.605469 189.855469 L 41.65625 196.695312 L 45.605469 203.535156 C 48.238281 203.535156 81.226562 203.535156 83.859375 203.535156 L 86.914062 198.257812 L 93.984375 198.257812 L 97.039062 203.535156 L 168.542969 203.535156 C 169.332031 199.015625 169.332031 194.386719 168.542969 189.855469 Z M 168.542969 189.855469 " fill-opacity="1" fill-rule="nonzero"/></g><g clip-path="url(#f9f32fc0bf)"><path fill="#0091ff" d="M 70.371094 169.90625 L 73.425781 164.628906 L 80.496094 164.628906 L 83.546875 169.90625 L 158.9375 169.90625 C 144.765625 153.933594 128.875 156.214844 109.714844 156.214844 L 83.546875 156.214844 L 80.496094 161.492188 L 73.425781 161.492188 L 70.371094 156.214844 L 62.472656 156.214844 L 58.523438 163.054688 L 62.472656 169.894531 L 70.371094 169.894531 Z M 70.371094 169.90625 " fill-opacity="1" fill-rule="nonzero"/></g><g clip-path="url(#1bed0db2fd)"><path fill="#0091ff" d="M 117.597656 178.320312 L 110.527344 178.320312 L 107.472656 173.042969 L 99.574219 173.042969 L 95.625 179.882812 L 99.574219 186.722656 L 107.472656 186.722656 L 110.527344 181.441406 L 117.597656 181.441406 L 120.652344 186.722656 L 167.878906 186.722656 C 166.601562 181.726562 164.390625 177.097656 161.445312 173.027344 L 120.652344 173.027344 Z M 117.597656 178.320312 " fill-opacity="1" fill-rule="nonzero"/></g><g clip-path="url(#d5a359f891)"><path fill="#0091ff" d="M 23.050781 189.855469 L 19.101562 196.695312 L 23.050781 203.550781 L 30.960938 203.550781 L 34.910156 196.695312 L 30.960938 189.855469 Z M 23.050781 189.855469 " fill-opacity="1" fill-rule="nonzero"/></g><path fill="#0091ff" d="M 73.070312 179.882812 L 77.019531 186.722656 L 84.933594 186.722656 L 88.882812 179.882812 L 84.933594 173.042969 L 77.019531 173.042969 Z M 73.070312 179.882812 " fill-opacity="1" fill-rule="nonzero"/><path fill="#0091ff" d="M 50.042969 223.484375 L 46.078125 230.339844 L 50.042969 237.179688 L 57.941406 237.179688 L 61.890625 230.339844 L 57.941406 223.484375 Z M 50.042969 223.484375 " fill-opacity="1" fill-rule="nonzero"/><g clip-path="url(#5ec9404c2b)"><path fill="#0091ff" d="M 83.859375 211.949219 L 76.789062 211.949219 L 73.738281 206.671875 L 65.839844 206.671875 L 61.890625 213.511719 L 65.839844 220.351562 L 73.738281 220.351562 L 76.789062 215.070312 L 83.859375 215.070312 L 86.914062 220.351562 L 161.433594 220.351562 C 164.378906 216.277344 166.589844 211.652344 167.867188 206.65625 C 143.125 206.65625 111.640625 206.65625 86.902344 206.65625 Z M 83.859375 211.949219 " fill-opacity="1" fill-rule="nonzero"/></g><g clip-path="url(#355c58ff6b)"><path fill="#0091ff" d="M 104.109375 228.777344 L 97.039062 228.777344 L 93.984375 223.5 C 86.859375 223.5 79.722656 223.5 72.582031 223.5 L 68.632812 230.339844 L 72.582031 237.179688 C 79.722656 237.179688 86.847656 237.179688 93.984375 237.179688 L 97.039062 231.898438 L 104.109375 231.898438 L 107.164062 237.179688 C 127.398438 237.179688 144.402344 239.878906 158.9375 223.484375 L 107.164062 223.484375 Z M 104.109375 228.777344 " fill-opacity="1" fill-rule="nonzero"/></g><path fill="#eeb30d" d="M 342.058594 157.707031 L 334.957031 157.707031 L 334.957031 150.605469 L 342.058594 150.605469 L 342.058594 157.707031 " fill-opacity="1" fill-rule="nonzero"/><path fill="#eeb30d" d="M 340.382812 171.90625 L 334.957031 171.90625 L 334.957031 166.480469 L 340.382812 166.480469 L 340.382812 171.90625 " fill-opacity="1" fill-rule="nonzero"/><g clip-path="url(#2d4ae2cd79)"><path fill="#eeb30d" d="M 319.726562 163.128906 L 319.726562 157.707031 L 325.152344 157.707031 L 325.152344 163.128906 Z M 333.527344 188.496094 C 332.164062 187.453125 331.152344 185.722656 330.484375 183.300781 C 330.121094 181.9375 329.902344 179.320312 329.832031 175.457031 L 325.152344 175.457031 L 325.152344 168.355469 L 329.726562 168.355469 C 329.613281 165.617188 329.375 163.484375 329.011719 161.957031 C 328.484375 159.730469 327.476562 157.855469 325.996094 156.328125 C 324.511719 154.804688 322.683594 153.71875 320.503906 153.085938 C 318.328125 152.449219 315.199219 152.132812 311.113281 152.132812 L 308.710938 152.132812 L 308.710938 162.976562 C 312.125 162.976562 314.328125 163.179688 315.308594 163.589844 C 316.292969 163.996094 316.972656 164.578125 317.351562 165.335938 C 317.730469 166.089844 317.933594 167.601562 317.964844 169.871094 C 318.117188 177.070312 318.355469 181.726562 318.691406 183.847656 C 319.203125 186.929688 320.171875 189.472656 321.59375 191.46875 C 322.621094 192.859375 324.253906 194.28125 326.496094 195.730469 C 324.769531 196.730469 323.355469 197.886719 322.25 199.203125 C 321.148438 200.519531 320.261719 202.121094 319.597656 204.011719 C 318.933594 205.902344 318.523438 208.421875 318.371094 211.566406 C 318.128906 216.769531 318.003906 220.292969 317.988281 222.136719 C 317.972656 223.980469 317.730469 225.289062 317.261719 226.0625 C 316.792969 226.832031 316.058594 227.421875 315.0625 227.832031 C 314.0625 228.238281 311.945312 228.445312 308.710938 228.445312 L 308.710938 239.332031 L 311.113281 239.332031 C 315.074219 239.332031 317.980469 239.058594 319.824219 238.515625 C 322.578125 237.699219 324.664062 236.589844 326.085938 235.179688 C 327.507812 233.773438 328.484375 231.90625 329.011719 229.578125 C 329.539062 227.25 329.804688 223.152344 329.804688 217.28125 C 329.804688 213.714844 329.925781 211.203125 330.167969 209.75 C 330.5 207.816406 331.070312 206.207031 331.871094 204.921875 C 332.671875 203.632812 333.632812 202.71875 334.75 202.175781 C 335.871094 201.628906 337.535156 201.296875 339.742188 201.175781 L 339.742188 190.289062 C 336.957031 190.136719 334.886719 189.539062 333.527344 188.496094 " fill-opacity="1" fill-rule="nonzero"/></g><g clip-path="url(#b3beff8487)"><path fill="#eeb30d" d="M 355.90625 143.914062 L 350.480469 143.914062 L 350.480469 138.488281 L 355.90625 138.488281 L 355.90625 143.914062 " fill-opacity="1" fill-rule="nonzero"/></g><path fill="#eeb30d" d="M 328.703125 150.605469 L 318.574219 150.605469 L 318.574219 140.476562 L 328.703125 140.476562 L 328.703125 150.605469 " fill-opacity="1" fill-rule="nonzero"/><g fill="#d9d9d9" fill-opacity="1"><g transform="translate(133.627041, 204.409981)"><g><path d="M 6.484375 -3.78125 L 16.328125 -3.78125 L 16.328125 0 L 1.625 0 L 1.625 -18.90625 L 6.484375 -18.90625 Z M 6.484375 -3.78125 "/></g></g></g><g fill="#d9d9d9" fill-opacity="1"><g transform="translate(155.632051, 204.409981)"><g><path d="M 13.765625 -13.765625 C 13.765625 -14.847656 13.226562 -15.390625 12.15625 -15.390625 L 7.5625 -15.390625 C 6.476562 -15.390625 5.9375 -14.847656 5.9375 -13.765625 L 5.9375 -5.125 C 5.9375 -4.050781 6.476562 -3.515625 7.5625 -3.515625 L 12.15625 -3.515625 C 13.226562 -3.515625 13.765625 -4.050781 13.765625 -5.125 Z M 18.625 -5.125 C 18.625 -3.238281 18.195312 -1.867188 17.34375 -1.015625 C 16.488281 -0.160156 15.117188 0.265625 13.234375 0.265625 L 6.484375 0.265625 C 4.585938 0.265625 3.210938 -0.160156 2.359375 -1.015625 C 1.503906 -1.867188 1.078125 -3.238281 1.078125 -5.125 L 1.078125 -13.765625 C 1.078125 -15.660156 1.503906 -17.035156 2.359375 -17.890625 C 3.210938 -18.742188 4.585938 -19.171875 6.484375 -19.171875 L 13.234375 -19.171875 C 15.117188 -19.171875 16.488281 -18.742188 17.34375 -17.890625 C 18.195312 -17.035156 18.625 -15.660156 18.625 -13.765625 Z M 18.625 -5.125 "/></g></g></g><g fill="#d9d9d9" fill-opacity="1"><g transform="translate(180.742061, 204.409981)"><g><path d="M 16.203125 -0.265625 C 12.179688 0.0859375 8.847656 0.265625 6.203125 0.265625 C 4.441406 0.265625 3.144531 -0.144531 2.3125 -0.96875 C 1.488281 -1.800781 1.078125 -3.097656 1.078125 -4.859375 L 1.078125 -13.5 C 1.078125 -15.382812 1.503906 -16.753906 2.359375 -17.609375 C 3.210938 -18.472656 4.585938 -18.90625 6.484375 -18.90625 L 16.203125 -18.90625 L 16.203125 -15.125 L 7.5625 -15.125 C 6.476562 -15.125 5.9375 -14.582031 5.9375 -13.5 L 5.9375 -4.859375 C 5.9375 -4.441406 6.054688 -4.113281 6.296875 -3.875 C 6.546875 -3.632812 6.859375 -3.515625 7.234375 -3.515625 C 7.609375 -3.515625 8.019531 -3.515625 8.46875 -3.515625 C 8.925781 -3.523438 9.394531 -3.539062 9.875 -3.5625 C 10.363281 -3.582031 10.851562 -3.597656 11.34375 -3.609375 C 11.84375 -3.628906 12.484375 -3.664062 13.265625 -3.71875 C 14.046875 -3.78125 15.023438 -3.847656 16.203125 -3.921875 Z M 16.203125 -0.265625 "/></g></g></g><g fill="#d9d9d9" fill-opacity="1"><g transform="translate(202.882068, 204.409981)"><g><path d="M 5 0 L -0.265625 0 L 6.890625 -18.90625 L 12.28125 -18.90625 L 19.4375 0 L 14.171875 0 L 12.953125 -3.375 L 6.203125 -3.375 Z M 7.421875 -6.890625 L 11.75 -6.890625 L 9.578125 -13.234375 Z M 7.421875 -6.890625 "/></g></g></g><g fill="#d9d9d9" fill-opacity="1"><g transform="translate(227.452074, 204.409981)"><g><path d="M 6.484375 -3.78125 L 16.328125 -3.78125 L 16.328125 0 L 1.625 0 L 1.625 -18.90625 L 6.484375 -18.90625 Z M 6.484375 -3.78125 "/></g></g></g><g fill="#d9d9d9" fill-opacity="1"><g transform="translate(249.457082, 204.409981)"><g><path d="M 10.796875 0 L 5.9375 0 L 5.9375 -15.125 L 0.265625 -15.125 L 0.265625 -18.90625 L 16.46875 -18.90625 L 16.46875 -15.125 L 10.796875 -15.125 Z M 10.796875 0 "/></g></g></g><g fill="#d9d9d9" fill-opacity="1"><g transform="translate(271.597083, 204.409981)"><g><path d="M 16.609375 0 L 1.625 0 L 1.625 -18.90625 L 16.609375 -18.90625 L 16.609375 -15.125 L 6.484375 -15.125 L 6.484375 -11.46875 L 14.4375 -11.46875 L 14.4375 -7.6875 L 6.484375 -7.6875 L 6.484375 -3.78125 L 16.609375 -3.78125 Z M 16.609375 0 "/></g></g></g><g fill="#d9d9d9" fill-opacity="1"><g transform="translate(294.142091, 204.409981)"><g><path d="M 16.203125 -0.265625 C 12.179688 0.0859375 8.847656 0.265625 6.203125 0.265625 C 4.441406 0.265625 3.144531 -0.144531 2.3125 -0.96875 C 1.488281 -1.800781 1.078125 -3.097656 1.078125 -4.859375 L 1.078125 -13.5 C 1.078125 -15.382812 1.503906 -16.753906 2.359375 -17.609375 C 3.210938 -18.472656 4.585938 -18.90625 6.484375 -18.90625 L 16.203125 -18.90625 L 16.203125 -15.125 L 7.5625 -15.125 C 6.476562 -15.125 5.9375 -14.582031 5.9375 -13.5 L 5.9375 -4.859375 C 5.9375 -4.441406 6.054688 -4.113281 6.296875 -3.875 C 6.546875 -3.632812 6.859375 -3.515625 7.234375 -3.515625 C 7.609375 -3.515625 8.019531 -3.515625 8.46875 -3.515625 C 8.925781 -3.523438 9.394531 -3.539062 9.875 -3.5625 C 10.363281 -3.582031 10.851562 -3.597656 11.34375 -3.609375 C 11.84375 -3.628906 12.484375 -3.664062 13.265625 -3.71875 C 14.046875 -3.78125 15.023438 -3.847656 16.203125 -3.921875 Z M 16.203125 -0.265625 "/></g></g></g><path stroke-linecap="round" transform="matrix(0, 0.75, -0.75, 0, 131.087045, 153.937329)" fill="none" stroke-linejoin="miter" d="M 1.500228 1.501477 L 113.104402 1.501477 " stroke="#0091ff" stroke-width="3" stroke-opacity="1" stroke-miterlimit="4"/></svg>